<?xml version="1.0" encoding="UTF-8" standalone="no"?>
<!DOCTYPE svg PUBLIC "-//W3C//DTD SVG 1.1//EN"
 "http://www.w3.org/Graphics/SVG/1.1/DTD/svg11.dtd">
<!-- Generated by graphviz version 2.26.3 (20100126.1600)
 -->
<!-- Title: models_diagram Pages: 1 -->
<svg width="504pt" height="1214pt"
 viewBox="0.00 0.00 504.00 1214.00" xmlns="http://www.w3.org/2000/svg" xmlns:xlink="http://www.w3.org/1999/xlink">
<g id="graph1" class="graph" transform="scale(1 1) rotate(0) translate(4 1210)">
<title>models_diagram</title>
<polygon fill="white" stroke="white" points="-4,5 -4,-1210 501,-1210 501,5 -4,5"/>
<!-- User -->
<g id="node1" class="node"><title>User</title>
<polyline fill="none" stroke="black" points="188,-775 382,-775 "/>
<path fill="none" stroke="black" d="M382,-775C388,-775 394,-781 394,-787"/>
<polyline fill="none" stroke="black" points="394,-787 394,-1193 "/>
<path fill="none" stroke="black" d="M394,-1193C394,-1199 388,-1205 382,-1205"/>
<polyline fill="none" stroke="black" points="382,-1205 188,-1205 "/>
<path fill="none" stroke="black" d="M188,-1205C182,-1205 176,-1199 176,-1193"/>
<polyline fill="none" stroke="black" points="176,-1193 176,-787 "/>
<path fill="none" stroke="black" d="M176,-787C176,-781 182,-775 188,-775"/>
<text text-anchor="middle" x="285" y="-1188.4" font-family="Times Roman,serif" font-size="14.00">User</text>
<polyline fill="none" stroke="black" points="176,-1179 394,-1179 "/>
<text text-anchor="start" x="184" y="-1162.4" font-family="Times Roman,serif" font-size="14.00">id :integer</text>
<text text-anchor="start" x="184" y="-1144.4" font-family="Times Roman,serif" font-size="14.00">name :string</text>
<text text-anchor="start" x="184" y="-1126.4" font-family="Times Roman,serif" font-size="14.00">nickname :string</text>
<text text-anchor="start" x="184" y="-1108.4" font-family="Times Roman,serif" font-size="14.00">email :string</text>
<text text-anchor="start" x="184" y="-1090.4" font-family="Times Roman,serif" font-size="14.00">role :string</text>
<text text-anchor="start" x="184" y="-1072.4" font-family="Times Roman,serif" font-size="14.00">salary_per_hour :integer</text>
<text text-anchor="start" x="184" y="-1054.4" font-family="Times Roman,serif" font-size="14.00">position :string</text>
<text text-anchor="start" x="184" y="-1036.4" font-family="Times Roman,serif" font-size="14.00">created_at :datetime</text>
<text text-anchor="start" x="184" y="-1018.4" font-family="Times Roman,serif" font-size="14.00">updated_at :datetime</text>
<text text-anchor="start" x="184" y="-1000.4" font-family="Times Roman,serif" font-size="14.00">encrypted_password :string</text>
<text text-anchor="start" x="184" y="-982.4" font-family="Times Roman,serif" font-size="14.00">sign_in_count :integer</text>
<text text-anchor="start" x="184" y="-964.4" font-family="Times Roman,serif" font-size="14.00">current_sign_in_at :datetime</text>
<text text-anchor="start" x="184" y="-946.4" font-family="Times Roman,serif" font-size="14.00">last_sign_in_at :datetime</text>
<text text-anchor="start" x="184" y="-928.4" font-family="Times Roman,serif" font-size="14.00">current_sign_in_ip :string</text>
<text text-anchor="start" x="184" y="-910.4" font-family="Times Roman,serif" font-size="14.00">last_sign_in_ip :string</text>
<text text-anchor="start" x="184" y="-892.4" font-family="Times Roman,serif" font-size="14.00">level :string</text>
<text text-anchor="start" x="184" y="-874.4" font-family="Times Roman,serif" font-size="14.00">password :string</text>
<text text-anchor="start" x="184" y="-856.4" font-family="Times Roman,serif" font-size="14.00">active :string</text>
<text text-anchor="start" x="184" y="-838.4" font-family="Times Roman,serif" font-size="14.00">avatar_file_name :string</text>
<text text-anchor="start" x="184" y="-820.4" font-family="Times Roman,serif" font-size="14.00">avatar_content_type :string</text>
<text text-anchor="start" x="184" y="-802.4" font-family="Times Roman,serif" font-size="14.00">avatar_file_size :integer</text>
<text text-anchor="start" x="184" y="-784.4" font-family="Times Roman,serif" font-size="14.00">avatar_updated_at :datetime</text>
</g>
<!-- Task -->
<g id="node3" class="node"><title>Task</title>
<polyline fill="none" stroke="black" points="11.5,-199 152.5,-199 "/>
<path fill="none" stroke="black" d="M152.5,-199C158.5,-199 164.5,-205 164.5,-211"/>
<polyline fill="none" stroke="black" points="164.5,-211 164.5,-473 "/>
<path fill="none" stroke="black" d="M164.5,-473C164.5,-479 158.5,-485 152.5,-485"/>
<polyline fill="none" stroke="black" points="152.5,-485 11.5,-485 "/>
<path fill="none" stroke="black" d="M11.5,-485C5.5,-485 -0.5,-479 -0.5,-473"/>
<polyline fill="none" stroke="black" points="-0.5,-473 -0.5,-211 "/>
<path fill="none" stroke="black" d="M-0.5,-211C-0.5,-205 5.5,-199 11.5,-199"/>
<text text-anchor="middle" x="82" y="-468.4" font-family="Times Roman,serif" font-size="14.00">Task</text>
<polyline fill="none" stroke="black" points="-0.5,-459 164.5,-459 "/>
<text text-anchor="start" x="7.5" y="-442.4" font-family="Times Roman,serif" font-size="14.00">id :integer</text>
<text text-anchor="start" x="7.5" y="-424.4" font-family="Times Roman,serif" font-size="14.00">name :string</text>
<text text-anchor="start" x="7.5" y="-406.4" font-family="Times Roman,serif" font-size="14.00">project_id :integer</text>
<text text-anchor="start" x="7.5" y="-388.4" font-family="Times Roman,serif" font-size="14.00">user_id :integer</text>
<text text-anchor="start" x="7.5" y="-370.4" font-family="Times Roman,serif" font-size="14.00">description :text</text>
<text text-anchor="start" x="7.5" y="-352.4" font-family="Times Roman,serif" font-size="14.00">real_time :time</text>
<text text-anchor="start" x="7.5" y="-334.4" font-family="Times Roman,serif" font-size="14.00">status :string</text>
<text text-anchor="start" x="7.5" y="-316.4" font-family="Times Roman,serif" font-size="14.00">specialization :string</text>
<text text-anchor="start" x="7.5" y="-298.4" font-family="Times Roman,serif" font-size="14.00">created_at :datetime</text>
<text text-anchor="start" x="7.5" y="-280.4" font-family="Times Roman,serif" font-size="14.00">updated_at :datetime</text>
<text text-anchor="start" x="7.5" y="-262.4" font-family="Times Roman,serif" font-size="14.00">full_description :text</text>
<text text-anchor="start" x="7.5" y="-244.4" font-family="Times Roman,serif" font-size="14.00">deadline :time</text>
<text text-anchor="start" x="7.5" y="-226.4" font-family="Times Roman,serif" font-size="14.00">priority :string</text>
<text text-anchor="start" x="7.5" y="-208.4" font-family="Times Roman,serif" font-size="14.00">started_at :datetime</text>
</g>
<!-- User&#45;&gt;Task -->
<g id="edge4" class="edge"><title>User&#45;&gt;Task</title>
<path fill="none" stroke="#41aabb" d="M186.216,-767.263C182.628,-757.427 179.203,-747.643 176,-738 149.837,-659.222 127.891,-569.356 111.802,-495.166"/>
<ellipse fill="none" stroke="#41aabb" cx="187.607" cy="-771.039" rx="4.00001" ry="4.00001"/>
<polygon fill="#41aabb" stroke="#41aabb" points="111.776,-495.046 114.069,-484.323 110.723,-490.158 109.67,-485.271 109.67,-485.271 109.67,-485.271 110.723,-490.158 105.271,-486.218 111.776,-495.046 111.776,-495.046"/>
</g>
<!-- Project -->
<g id="node4" class="node"><title>Project</title>
<polyline fill="none" stroke="black" points="196.5,-523 373.5,-523 "/>
<path fill="none" stroke="black" d="M373.5,-523C379.5,-523 385.5,-529 385.5,-535"/>
<polyline fill="none" stroke="black" points="385.5,-535 385.5,-725 "/>
<path fill="none" stroke="black" d="M385.5,-725C385.5,-731 379.5,-737 373.5,-737"/>
<polyline fill="none" stroke="black" points="373.5,-737 196.5,-737 "/>
<path fill="none" stroke="black" d="M196.5,-737C190.5,-737 184.5,-731 184.5,-725"/>
<polyline fill="none" stroke="black" points="184.5,-725 184.5,-535 "/>
<path fill="none" stroke="black" d="M184.5,-535C184.5,-529 190.5,-523 196.5,-523"/>
<text text-anchor="middle" x="285" y="-720.4" font-family="Times Roman,serif" font-size="14.00">Project</text>
<polyline fill="none" stroke="black" points="184.5,-711 385.5,-711 "/>
<text text-anchor="start" x="192.5" y="-694.4" font-family="Times Roman,serif" font-size="14.00">id :integer</text>
<text text-anchor="start" x="192.5" y="-676.4" font-family="Times Roman,serif" font-size="14.00">name :string</text>
<text text-anchor="start" x="192.5" y="-658.4" font-family="Times Roman,serif" font-size="14.00">description :string</text>
<text text-anchor="start" x="192.5" y="-640.4" font-family="Times Roman,serif" font-size="14.00">created_at :datetime</text>
<text text-anchor="start" x="192.5" y="-622.4" font-family="Times Roman,serif" font-size="14.00">updated_at :datetime</text>
<text text-anchor="start" x="192.5" y="-604.4" font-family="Times Roman,serif" font-size="14.00">logo_file_name :string</text>
<text text-anchor="start" x="192.5" y="-586.4" font-family="Times Roman,serif" font-size="14.00">logo_content_type :string</text>
<text text-anchor="start" x="192.5" y="-568.4" font-family="Times Roman,serif" font-size="14.00">logo_file_size :integer</text>
<text text-anchor="start" x="192.5" y="-550.4" font-family="Times Roman,serif" font-size="14.00">logo_updated_at :datetime</text>
<text text-anchor="start" x="192.5" y="-532.4" font-family="Times Roman,serif" font-size="14.00">site :string</text>
</g>
<!-- User&#45;&gt;Project -->
<g id="edge2" class="edge"><title>User&#45;&gt;Project</title>
<path fill="none" stroke="#3104b8" d="M285,-764.637C285,-758.78 285,-752.992 285,-747.299"/>
<polygon fill="#3104b8" stroke="#3104b8" points="285,-764.87 280.5,-774.87 285,-769.87 285,-774.87 285,-774.87 285,-774.87 285,-769.87 289.5,-774.87 285,-764.87 285,-764.87"/>
<polygon fill="#3104b8" stroke="#3104b8" points="285,-747.161 289.5,-737.161 285,-742.161 285,-737.161 285,-737.161 285,-737.161 285,-742.161 280.5,-737.161 285,-747.161 285,-747.161"/>
</g>
<!-- ActionLog -->
<g id="node5" class="node"><title>ActionLog</title>
<polyline fill="none" stroke="black" points="347.5,-1 484.5,-1 "/>
<path fill="none" stroke="black" d="M484.5,-1C490.5,-1 496.5,-7 496.5,-13"/>
<polyline fill="none" stroke="black" points="496.5,-13 496.5,-149 "/>
<path fill="none" stroke="black" d="M496.5,-149C496.5,-155 490.5,-161 484.5,-161"/>
<polyline fill="none" stroke="black" points="484.5,-161 347.5,-161 "/>
<path fill="none" stroke="black" d="M347.5,-161C341.5,-161 335.5,-155 335.5,-149"/>
<polyline fill="none" stroke="black" points="335.5,-149 335.5,-13 "/>
<path fill="none" stroke="black" d="M335.5,-13C335.5,-7 341.5,-1 347.5,-1"/>
<text text-anchor="middle" x="416" y="-144.4" font-family="Times Roman,serif" font-size="14.00">ActionLog</text>
<polyline fill="none" stroke="black" points="335.5,-135 496.5,-135 "/>
<text text-anchor="start" x="343.5" y="-118.4" font-family="Times Roman,serif" font-size="14.00">id :integer</text>
<text text-anchor="start" x="343.5" y="-100.4" font-family="Times Roman,serif" font-size="14.00">user_id :integer</text>
<text text-anchor="start" x="343.5" y="-82.4" font-family="Times Roman,serif" font-size="14.00">project_id :integer</text>
<text text-anchor="start" x="343.5" y="-64.4" font-family="Times Roman,serif" font-size="14.00">data :text</text>
<text text-anchor="start" x="343.5" y="-46.4" font-family="Times Roman,serif" font-size="14.00">created_at :datetime</text>
<text text-anchor="start" x="343.5" y="-28.4" font-family="Times Roman,serif" font-size="14.00">action :string</text>
<text text-anchor="start" x="343.5" y="-10.4" font-family="Times Roman,serif" font-size="14.00">task_id :integer</text>
</g>
<!-- User&#45;&gt;ActionLog -->
<g id="edge6" class="edge"><title>User&#45;&gt;ActionLog</title>
<path fill="none" stroke="#cf35ba" d="M385.23,-767.077C388.404,-757.328 391.349,-747.608 394,-738 448.16,-541.713 437.513,-299.902 426.086,-171.365"/>
<ellipse fill="none" stroke="#cf35ba" cx="383.895" cy="-771.104" rx="4.00001" ry="4.00001"/>
<polygon fill="#cf35ba" stroke="#cf35ba" points="426.065,-171.134 429.638,-160.766 425.611,-166.154 425.157,-161.175 425.157,-161.175 425.157,-161.175 425.611,-166.154 420.675,-161.583 426.065,-171.134 426.065,-171.134"/>
</g>
<!-- ProjectMonthlyIncome -->
<g id="node2" class="node"><title>ProjectMonthlyIncome</title>
<polyline fill="none" stroke="black" points="194,-271 376,-271 "/>
<path fill="none" stroke="black" d="M376,-271C382,-271 388,-277 388,-283"/>
<polyline fill="none" stroke="black" points="388,-283 388,-401 "/>
<path fill="none" stroke="black" d="M388,-401C388,-407 382,-413 376,-413"/>
<polyline fill="none" stroke="black" points="376,-413 194,-413 "/>
<path fill="none" stroke="black" d="M194,-413C188,-413 182,-407 182,-401"/>
<polyline fill="none" stroke="black" points="182,-401 182,-283 "/>
<path fill="none" stroke="black" d="M182,-283C182,-277 188,-271 194,-271"/>
<text text-anchor="middle" x="285" y="-396.4" font-family="Times Roman,serif" font-size="14.00">ProjectMonthlyIncome</text>
<polyline fill="none" stroke="black" points="182,-387 388,-387 "/>
<text text-anchor="start" x="190" y="-370.4" font-family="Times Roman,serif" font-size="14.00">id :integer</text>
<text text-anchor="start" x="190" y="-352.4" font-family="Times Roman,serif" font-size="14.00">project_id :integer</text>
<text text-anchor="start" x="190" y="-334.4" font-family="Times Roman,serif" font-size="14.00">income_per_month :integer</text>
<text text-anchor="start" x="190" y="-316.4" font-family="Times Roman,serif" font-size="14.00">month :date</text>
<text text-anchor="start" x="190" y="-298.4" font-family="Times Roman,serif" font-size="14.00">created_at :datetime</text>
<text text-anchor="start" x="190" y="-280.4" font-family="Times Roman,serif" font-size="14.00">updated_at :datetime</text>
</g>
<!-- Task&#45;&gt;ActionLog -->
<g id="edge8" class="edge"><title>Task&#45;&gt;ActionLog</title>
<path fill="none" stroke="#3a7db0" d="M170.326,-200.43C171.212,-199.61 172.103,-198.799 173,-198 217.085,-158.708 276.712,-129.734 325.867,-110.448"/>
<ellipse fill="none" stroke="#3a7db0" cx="167.441" cy="-203.214" rx="4.00002" ry="4.00002"/>
<polygon fill="#3a7db0" stroke="#3a7db0" points="325.902,-110.434 336.851,-111.038 330.568,-108.637 335.234,-106.839 335.234,-106.839 335.234,-106.839 330.568,-108.637 333.616,-102.64 325.902,-110.434 325.902,-110.434"/>
</g>
<!-- Project&#45;&gt;ProjectMonthlyIncome -->
<g id="edge14" class="edge"><title>Project&#45;&gt;ProjectMonthlyIncome</title>
<path fill="none" stroke="#d687e9" d="M285,-514.553C285,-483.987 285,-451.634 285,-423.303"/>
<ellipse fill="none" stroke="#d687e9" cx="285" cy="-518.759" rx="4" ry="4"/>
<polygon fill="#d687e9" stroke="#d687e9" points="285,-423.058 289.5,-413.058 285,-418.058 285,-413.058 285,-413.058 285,-413.058 285,-418.058 280.5,-413.058 285,-423.058 285,-423.058"/>
</g>
<!-- Project&#45;&gt;Task -->
<g id="edge10" class="edge"><title>Project&#45;&gt;Task</title>
<path fill="none" stroke="#b22a12" d="M194.804,-516.117C187.305,-506.023 179.944,-495.886 173,-486 172.124,-484.752 171.246,-483.496 170.366,-482.233"/>
<ellipse fill="none" stroke="#b22a12" cx="197.357" cy="-519.535" rx="4.00002" ry="4.00002"/>
<polygon fill="#b22a12" stroke="#b22a12" points="170.227,-482.03 168.255,-471.243 167.389,-477.914 164.55,-473.798 164.55,-473.798 164.55,-473.798 167.389,-477.914 160.846,-476.352 170.227,-482.03 170.227,-482.03"/>
</g>
<!-- Project&#45;&gt;ActionLog -->
<g id="edge12" class="edge"><title>Project&#45;&gt;ActionLog</title>
<path fill="none" stroke="#a03792" d="M383.083,-515.903C388.496,-506.175 393.246,-496.16 397,-486 435.04,-383.057 433.792,-255.283 427.002,-171.107"/>
<ellipse fill="none" stroke="#a03792" cx="381.027" cy="-519.469" rx="4.00002" ry="4.00002"/>
<polygon fill="#a03792" stroke="#a03792" points="426.995,-171.026 430.633,-160.681 426.572,-166.044 426.149,-161.062 426.149,-161.062 426.149,-161.062 426.572,-166.044 421.665,-161.443 426.995,-171.026 426.995,-171.026"/>
</g>
</g>
</svg>
